<svg width="800" height="800" viewBox="0 0 800 800" fill="none" xmlns="http://www.w3.org/2000/svg">
<path d="M706 199.999L431 42.4992C421.513 37.2461 410.845 34.4902 400 34.4902C389.155 34.4902 378.488 37.2461 369 42.4992L94.0004 199.999C84.3976 205.484 76.4222 213.419 70.8882 222.994C65.3542 232.569 62.4598 243.44 62.5004 254.499V549.999C63.2192 560.285 66.4715 570.233 71.9677 578.957C77.4638 587.681 85.0329 594.91 94.0004 599.999L369 755.499C378.488 760.752 389.155 763.508 400 763.508C410.845 763.508 421.513 760.752 431 755.499L706 599.999C714.968 594.91 722.537 587.681 728.033 578.957C733.529 570.233 736.782 560.285 737.5 549.999V252.499C737.194 241.781 734.136 231.322 728.619 222.128C723.103 212.934 715.313 205.313 706 199.999ZM369 685.499L262.5 625.499V360.499L369 418.499V685.499ZM400 364.499L296 307.499L536.5 173.999L641 232.999L400 364.499ZM400 96.9992L473 137.999L231 272.499L159 232.999L400 96.9992ZM125 285.499L200 326.499V589.999L125 549.999V285.499ZM431 685.499V418.499L675 285.499V549.999L431 685.499Z" fill="black"/>
</svg>
