<svg width="800" height="800" viewBox="0 0 800 800" fill="none" xmlns="http://www.w3.org/2000/svg">
<path d="M782.999 349.999L737.499 215.999L430.999 42.4992C421.511 37.2461 410.844 34.4902 399.999 34.4902C389.154 34.4902 378.487 37.2461 368.999 42.4992L62.4993 215.999L16.9993 349.999C12.1322 363.907 12.3777 379.094 17.6919 392.838C23.0061 406.582 33.0415 417.983 45.9993 424.999L62.4993 433.999V549.999C63.2181 560.285 66.4704 570.233 71.9666 578.957C77.4627 587.681 85.0318 594.91 93.9993 599.999L368.999 755.499C378.487 760.752 389.154 763.508 399.999 763.508C410.844 763.508 421.511 760.752 430.999 755.499L705.999 599.999C714.967 594.91 722.536 587.681 728.032 578.957C733.528 570.233 736.781 560.285 737.499 549.999V433.999L753.999 424.999C766.957 417.983 776.992 406.582 782.307 392.838C787.621 379.094 787.866 363.907 782.999 349.999ZM499.999 493.499L475.999 429.499L699.999 306.499L721.999 370.499L499.999 493.499ZM399.999 96.9992L672.999 249.999L399.999 399.999L126.999 249.999L399.999 96.9992ZM75.9993 370.499L99.9993 306.499L323.999 429.499L299.999 493.499L75.9993 370.499ZM125.999 467.999L338.499 583.999L369.499 491.999V685.499L124.999 549.999L125.999 467.999ZM674.999 549.999L430.999 685.499V491.999L462.499 583.999L674.999 467.999V549.999Z" fill="black"/>
</svg>
