<svg width="832" height="831" viewBox="0 0 832 831" fill="none" xmlns="http://www.w3.org/2000/svg">
<path d="M373.321 0C373.321 30.36 373.321 60.72 373.321 92C364.081 93.65 354.841 95.3 345.321 97C294.963 109.411 247.887 131.086 208.321 165C345.271 165 482.221 165 623.321 165C612.044 155.818 612.044 155.818 600.321 147.312C599.668 146.869 599.016 146.425 598.344 145.968C592.124 141.783 585.729 137.914 579.253 134.141C577.836 133.304 576.428 132.452 575.025 131.592C539.996 110.155 498.641 98.2032 458.321 92C458.321 61.64 458.321 31.28 458.321 0C535.039 6.39321 610.207 36.9582 670.321 85C670.945 85.4947 671.57 85.9894 672.214 86.499C681.076 93.5257 689.575 100.812 697.796 108.577C699.28 109.962 700.784 111.319 702.301 112.668C710.487 119.989 717.965 127.849 725.321 136C726.135 136.897 726.135 136.897 726.965 137.812C747.737 160.814 765.459 186.837 780.321 214C780.794 214.858 781.268 215.716 781.756 216.601C809.628 267.426 824.312 321.705 829.928 379.038C830.154 381.319 830.389 383.599 830.648 385.876C831.644 395.054 831.519 404.28 831.508 413.5C831.507 414.863 831.507 414.863 831.506 416.254C831.427 460.192 824.79 503.135 811.321 545C811.014 545.965 810.708 546.931 810.392 547.925C792.021 605.264 759.972 656.843 719.321 701C718.753 701.618 718.185 702.237 717.599 702.874C715.658 704.984 713.709 707.086 711.758 709.188C710.838 710.186 710.838 710.186 709.9 711.204C706.195 715.173 702.342 718.826 698.22 722.359C695.989 724.286 693.849 726.296 691.708 728.322C685.162 734.502 678.319 740.156 671.155 745.603C669.289 747.024 667.436 748.461 665.582 749.898C649.537 762.249 632.443 772.856 614.742 782.658C613.223 783.5 611.708 784.347 610.197 785.201C568.239 808.925 520.861 822.638 473.395 829.494C470.293 829.921 470.293 829.921 467.321 831C464.681 831 462.041 831 459.321 831C459.321 800.64 459.321 770.28 459.321 739C431.601 739 403.881 739 375.321 739C375.321 769.36 375.321 799.72 375.321 831C365.172 831 365.172 831 360.739 830.336C359.739 830.187 358.739 830.038 357.71 829.884C356.653 829.716 355.597 829.548 354.508 829.375C353.38 829.197 352.252 829.019 351.09 828.835C272.027 815.955 196.954 781.221 138.078 726.539C135.924 724.555 133.745 722.638 131.508 720.75C122.866 713.252 114.526 704.926 107.157 696.172C105.645 694.384 104.108 692.634 102.547 690.891C65.115 648.829 38.7646 598.909 20.3206 546C19.8928 544.778 19.4649 543.555 19.024 542.296C16.0068 533.487 13.5106 524.626 11.3831 515.562C11.1318 514.502 11.1318 514.502 10.8753 513.421C7.16725 497.635 4.71008 481.677 2.44955 465.629C2.34889 464.919 2.24822 464.208 2.1445 463.477C0.768382 453.412 0.151029 443.442 0.0823669 433.285C0.0726637 432.088 0.0629452 430.891 0.052948 429.657C0.0280772 425.792 0.01544 421.928 0.00814818 418.062C0.00552977 416.743 0.00291136 415.424 0.000213607 414.065C-0.0171483 392.777 1.02057 372.031 4.32065 351C4.49145 349.868 4.66225 348.737 4.83823 347.571C5.84179 341.013 6.98962 334.499 8.32065 328C8.4697 327.27 8.61874 326.539 8.77231 325.787C16.3165 289.755 29.2175 253.589 47.0189 221.364C48.3894 218.875 49.7353 216.374 51.0785 213.871C56.0591 204.633 61.1944 195.595 67.056 186.881C67.9642 185.53 68.8665 184.175 69.765 182.818C76.945 171.975 84.533 161.682 92.8895 151.719C94.8844 149.323 96.8152 146.876 98.7581 144.438C112.159 128.123 127.327 111.857 143.973 98.8516C146.23 97.0711 148.333 95.1984 150.446 93.25C207.588 42.3011 295.854 0 373.321 0Z" fill="#EE4274"/>
<path d="M141.731 250.871C142.662 250.874 143.593 250.877 144.552 250.88C145.533 250.879 146.514 250.878 147.524 250.877C150.838 250.876 154.151 250.881 157.465 250.887C159.83 250.887 162.194 250.887 164.559 250.886C170.331 250.886 176.103 250.89 181.874 250.897C188.588 250.904 195.301 250.905 202.015 250.906C213.988 250.909 225.961 250.915 237.935 250.925C249.569 250.934 261.202 250.941 272.836 250.945C273.56 250.946 274.284 250.946 275.03 250.946C281.327 250.948 287.623 250.951 293.92 250.953C321.054 250.962 348.187 250.982 375.32 251C375.32 296.54 375.32 342.08 375.32 389C355.19 389 335.06 389 314.32 389C314.32 408.8 314.32 428.6 314.32 449C334.45 449 354.58 449 375.32 449C375.32 544.7 375.32 640.4 375.32 739C353.273 736.679 353.273 736.679 343.383 734.25C341.735 733.855 341.735 733.855 340.054 733.453C322.903 729.271 306.559 723.923 290.32 717C289.506 716.656 288.692 716.312 287.853 715.958C268.665 707.795 250.366 698.026 233.32 686C232.107 685.158 230.893 684.315 229.68 683.473C222.282 678.3 215.22 672.827 208.32 667C207.279 666.145 206.237 665.291 205.195 664.438C191.86 653.395 178.91 641.196 168.27 627.504C166.126 624.751 163.853 622.138 161.57 619.5C131.116 582.955 107.499 534.668 98.3203 488C98.1104 486.944 97.9004 485.887 97.6841 484.799C96.96 481.099 96.2603 477.395 95.5703 473.688C95.3469 472.506 95.1235 471.325 94.8933 470.107C94.6888 468.962 94.4842 467.817 94.2734 466.637C94.0894 465.623 93.9054 464.61 93.7158 463.565C93.1803 458.738 93.3203 453.857 93.3203 449C130.94 449 168.56 449 207.32 449C207.32 429.2 207.32 409.4 207.32 389C169.37 389 131.42 389 92.3203 389C93.5018 367.734 93.5018 367.734 94.8828 359.75C95.0521 358.763 95.2214 357.776 95.3958 356.76C99.0302 336.754 116.513 250.931 141.731 250.871Z" fill="#1D1D1D"/>
<path d="M459.32 251C537.53 251 615.74 251 696.32 251C710.948 276.599 722.072 302.204 729.688 330.641C730.26 332.773 730.847 334.9 731.438 337.027C733.548 344.953 735.115 352.92 736.508 361C736.675 361.949 736.842 362.897 737.014 363.874C738.408 372.326 738.778 380.316 739.32 389C694.44 389 649.56 389 603.32 389C603.32 408.8 603.32 428.6 603.32 449C647.87 449 692.42 449 738.32 449C738.32 456.791 737.64 463.37 736.258 470.938C735.924 472.774 735.924 472.774 735.583 474.647C731.683 495.334 725.649 515.287 718.32 535C717.92 536.084 717.92 536.084 717.512 537.189C714.061 546.451 709.888 555.283 705.335 564.044C704.364 565.916 703.408 567.795 702.453 569.676C690.763 592.437 675.65 613.009 658.773 632.188C657.242 633.943 655.745 635.731 654.305 637.562C634.331 662.097 606.222 681.891 579.32 698C578.551 698.461 577.781 698.922 576.988 699.397C543.56 719.158 499.824 738 460.32 738C460.32 642.63 460.32 547.26 460.32 449C480.45 449 500.58 449 521.32 449C520.99 429.53 520.66 410.06 520.32 390C490.125 389.505 490.125 389.505 459.32 389C459.32 343.46 459.32 297.92 459.32 251Z" fill="#1D1D1D"/>
<path d="M459.32 449C459.65 449 459.98 449 460.32 449C460.32 544.37 460.32 639.74 460.32 738C461.64 738.33 462.96 738.66 464.32 739C463 739 461.68 739 460.32 739C460.32 769.03 460.32 799.06 460.32 830C462.63 830 464.94 830 467.32 830C467.32 830.33 467.32 830.66 467.32 831C464.68 831 462.04 831 459.32 831C459.32 800.64 459.32 770.28 459.32 739C431.6 739 403.88 739 375.32 739C375.32 738.67 375.32 738.34 375.32 738C403.04 738 430.76 738 459.32 738C459.32 642.63 459.32 547.26 459.32 449Z" fill="#8F8F8F"/>
</svg>
