<svg width="512" height="512" viewBox="0 0 512 512" fill="none" xmlns="http://www.w3.org/2000/svg">
<g filter="url(#filter0_d_349_2)">
<path d="M229.663 448.696L229.69 448.713L229.702 448.743C229.726 449.317 229.765 449.89 229.769 450.464V503.716L229.749 503.759C229.214 504.128 228.764 503.975 228.342 503.932C199.236 500.954 170.882 492.833 144.587 479.942C120.007 467.953 97.5754 451.95 78.2045 432.584C46.6342 401.011 24.8652 363.652 12.8973 320.505C10.2841 310.99 8.24532 301.324 6.79218 291.561C5.81505 285.031 5.10372 278.468 4.65815 271.87C4.20867 265.14 3.93511 258.409 4.01328 251.667C4.1123 243.488 4.58649 235.327 5.43594 227.187C8.38582 198.71 16.2182 170.962 28.586 145.172C40.3713 120.471 56.1222 97.89 75.2067 78.334C99.0688 53.7076 127.722 34.287 159.38 21.2831C173.875 15.3009 188.907 10.7304 204.27 7.6342C211.223 6.22373 218.223 5.15509 225.258 4.27109C226.29 4.14144 227.334 4.09036 228.354 4C228.399 4.06039 228.441 4.12336 228.479 4.18859C228.51 4.24359 228.561 4.30253 228.561 4.36146C228.561 22.3504 228.571 40.3433 228.592 58.3401C228.577 58.6296 228.547 58.9181 228.502 59.2044L228.501 59.2207L228.492 59.2348L228.479 59.2443L228.463 59.2476C221.139 60.2593 213.873 61.6533 206.693 63.424C199.507 65.2315 192.428 67.4431 185.489 70.0481C178.613 72.6354 171.889 75.613 165.349 78.9666C158.74 82.3518 152.33 86.1153 146.15 90.2385C139.996 94.339 134.081 98.7898 128.433 103.569C128.507 103.75 128.519 103.824 128.566 103.86C128.62 103.896 128.685 103.912 128.749 103.907L378.718 103.931C378.949 103.931 379.179 103.895 379.5 103.868L379.521 103.863L379.538 103.85L379.547 103.83L379.547 103.809C379.437 103.271 378.999 103.094 378.698 102.846C360.86 87.9304 340.515 76.3376 318.621 68.614C308.371 65.0111 297.842 62.2685 287.142 60.4145C285.094 60.057 283.026 59.8055 280.97 59.4912C280.474 59.4166 279.989 59.2869 279.528 59.1887L279.501 59.1739L279.489 59.1455C279.293 56.4739 279.34 6.3141 279.544 4.11001L279.559 4.08011L279.59 4.0668C280.596 4.02818 281.604 4.09401 282.596 4.26324C287.943 5.02151 293.301 5.7012 298.621 6.64413C309.248 8.53089 319.736 11.1431 330.01 14.4626C359.016 23.7467 386.074 38.3165 409.834 57.4443C437.59 79.6387 460.317 107.53 476.497 139.255C486.046 157.861 493.197 177.615 497.775 198.039C499.612 206.208 501.045 214.445 502.074 222.751C503.712 236.001 504.306 249.36 503.853 262.704C503.65 269.045 503.161 275.374 502.477 281.684C500.832 296.965 497.77 312.059 493.331 326.768C483.952 358.03 468.546 387.132 447.992 412.417C426.153 439.494 398.932 461.693 368.071 477.593C350.091 486.909 331.035 493.956 311.335 498.573C304.112 500.27 296.833 501.653 289.498 502.722C286.923 503.115 284.331 503.358 281.748 503.661C281.409 503.679 281.07 503.679 280.732 503.661L280.701 503.647L280.685 503.617C280.616 503.263 280.571 502.905 280.552 502.545C280.552 484.996 280.552 467.459 280.552 449.933C280.552 449.364 280.431 448.755 280.849 448.272L280.866 448.258L280.888 448.252C281.528 448.249 282.167 448.212 282.803 448.142C289.615 447.104 296.37 445.718 303.041 443.989C339.312 434.418 370.332 415.945 396.099 388.569C417.017 366.355 431.927 340.596 440.828 311.292C444.243 300.029 446.647 288.482 448.012 276.789C448.114 275.909 448.157 275.021 448.227 274.148L448.219 274.118L448.196 274.097C447.391 273.799 446.679 273.936 445.987 273.932C426.979 273.932 407.972 273.932 388.966 273.932C382.191 273.932 375.417 273.932 368.642 273.932C368.095 273.932 367.544 273.873 366.992 273.838L366.964 273.824L366.949 273.795C366.906 273.579 366.876 273.362 366.86 273.143C366.86 261.822 366.86 250.502 366.86 239.182C366.886 238.866 366.939 238.553 367.02 238.246L367.037 238.219L367.067 238.207H434.868C437.146 238.207 439.425 238.207 441.704 238.207C443.982 238.207 446.206 238.29 448.583 238.136L448.616 238.118L448.629 238.081C447.502 223.273 444.665 208.648 440.175 194.499C435.849 180.712 429.99 167.46 422.708 154.994L422.69 154.977L422.665 154.97H283.03C282.573 154.97 282.115 154.947 281.662 154.97C281.307 155.015 280.955 155.078 280.607 155.159L280.58 155.177L280.568 155.206V237.712C280.568 237.775 280.583 237.837 280.611 237.893C280.679 237.982 280.753 238.066 280.833 238.144C281.435 238.144 282.139 238.195 282.842 238.195C293.583 238.195 304.322 238.195 315.06 238.195C315.744 238.195 316.459 238.042 317.233 238.372L317.256 238.391L317.265 238.419V240.136C317.265 250.875 317.265 261.606 317.265 272.329C317.265 272.836 317.229 273.343 317.21 273.85L317.195 273.881L317.163 273.893L282.799 273.917C282.213 273.917 281.627 273.917 281.052 273.948C280.915 273.948 280.79 274.16 280.661 274.278C280.626 275.064 280.556 275.85 280.556 276.635C280.556 333.022 280.556 389.411 280.556 445.8C280.556 446.456 280.556 447.109 280.583 447.765C280.583 447.934 280.751 448.095 280.841 448.256C264.334 448.256 247.829 448.256 231.324 448.256C230.808 448.256 230.288 448.205 229.761 448.177C229.761 448.044 229.761 447.914 229.761 447.784C229.761 390.669 229.761 333.554 229.761 276.439C229.761 275.854 229.706 275.26 229.679 274.683C229.679 274.467 229.648 274.247 229.624 273.976L229.62 273.958L229.61 273.943L229.595 273.934L229.577 273.932H195.397C194.616 273.932 193.869 273.877 193.107 273.85L193.073 273.834L193.06 273.799C193.06 262.366 193.06 250.931 193.06 239.496C193.06 239.233 193.06 238.973 193.083 238.71C193.082 238.646 193.092 238.582 193.115 238.522C193.142 238.463 193.201 238.423 193.388 238.239C194.459 238.164 195.683 238.215 196.906 238.207C198.129 238.199 199.251 238.207 200.424 238.207H222.491C223.664 238.207 224.836 238.207 226.009 238.207C227.181 238.207 228.424 238.278 229.632 238.156L229.659 238.141L229.675 238.113C229.725 237.898 229.759 237.68 229.776 237.461C229.776 210.113 229.765 182.764 229.741 155.414C229.743 155.35 229.725 155.287 229.69 155.234C229.65 155.182 229.603 155.137 229.55 155.1C227.553 154.911 86.9166 154.931 85.3258 155.124C85.2338 155.217 85.1489 155.316 85.0718 155.422C84.8998 155.697 84.7356 155.98 84.5715 156.263C75.8811 171.467 69.2671 187.778 64.9078 204.757C63.1442 211.591 61.7585 218.517 60.757 225.505C60.2137 229.32 59.8697 233.166 59.4593 237.001C59.4202 237.362 59.2678 237.787 59.5922 238.081C59.6492 238.123 59.7108 238.157 59.7759 238.184C59.8395 238.191 59.9039 238.191 59.9674 238.184H60.1629H128.316L128.511 238.203C128.575 238.203 128.638 238.214 128.699 238.235C128.753 238.271 128.802 238.313 128.847 238.36C128.886 238.408 128.957 238.455 128.96 238.506C128.993 238.767 129.011 239.029 129.015 239.292C129.015 250.675 129.015 262.059 129.015 273.445C129.02 273.509 129.008 273.572 128.98 273.63C128.953 273.685 128.89 273.724 128.691 273.917H80.4597C74.081 273.917 67.6971 273.917 61.308 273.917C60.8234 273.917 60.2841 273.728 59.819 274.211V274.251C59.862 274.856 59.8736 275.504 59.9635 276.14C60.4208 279.441 60.8586 282.745 61.3745 286.037C63.1673 297.337 65.9947 308.447 69.8208 319.224C79.9182 348.103 96.6425 374.184 118.638 395.354C138.296 414.462 161.756 429.169 187.475 438.508C198.909 442.665 210.702 445.748 222.702 447.718C224.234 447.973 225.794 448.083 227.338 448.26L228.557 448.492L229.663 448.696Z" fill="white"/>
</g>
<defs>
<filter id="filter0_d_349_2" x="0" y="0" width="512" height="512" filterUnits="userSpaceOnUse" color-interpolation-filters="sRGB">
<feFlood flood-opacity="0" result="BackgroundImageFix"/>
<feColorMatrix in="SourceAlpha" type="matrix" values="0 0 0 0 0 0 0 0 0 0 0 0 0 0 0 0 0 0 127 0" result="hardAlpha"/>
<feOffset dx="2" dy="2"/>
<feGaussianBlur stdDeviation="3"/>
<feComposite in2="hardAlpha" operator="out"/>
<feColorMatrix type="matrix" values="0 0 0 0 0 0 0 0 0 0 0 0 0 0 0 0 0 0 0.4 0"/>
<feBlend mode="normal" in2="BackgroundImageFix" result="effect1_dropShadow_349_2"/>
<feBlend mode="normal" in="SourceGraphic" in2="effect1_dropShadow_349_2" result="shape"/>
</filter>
</defs>
</svg>
