<svg width="800" height="800" viewBox="0 0 800 800" fill="none" xmlns="http://www.w3.org/2000/svg">
<path d="M691.665 166.667C714.677 166.667 733.332 185.322 733.332 208.335V283.628C733.332 296.752 723.179 307.641 710.088 308.565C662.314 311.938 624.998 351.818 624.998 400C624.998 448.183 662.314 488.062 710.088 491.436C723.179 492.36 733.332 503.249 733.332 516.372V591.667C733.332 614.679 714.677 633.334 691.665 633.334H108.332C85.3198 633.334 66.665 614.679 66.665 591.67L66.6562 516.377C66.6562 503.251 76.8046 492.36 89.8981 491.436C137.677 488.068 174.998 448.187 174.998 400C174.998 351.814 137.677 311.933 89.8981 308.564C76.8046 307.641 66.6562 296.749 66.6562 283.623L66.665 208.334C66.665 185.322 85.3198 166.667 108.332 166.667H691.665Z" fill="#212121"/>
</svg>
