<svg width="800" height="800" viewBox="0 0 800 800" fill="none" xmlns="http://www.w3.org/2000/svg">
<path d="M633.332 625H166.665C151.221 624.913 136.435 618.74 125.514 607.817C114.593 596.897 108.42 582.11 108.332 566.667V483.333C108.418 476.73 111.08 470.42 115.75 465.75C120.42 461.08 126.728 458.42 133.332 458.333C148.803 458.333 163.64 452.187 174.58 441.247C185.52 430.307 191.665 415.47 191.665 400C191.665 384.53 185.52 369.693 174.58 358.753C163.64 347.813 148.803 341.667 133.332 341.667C126.728 341.58 120.42 338.92 115.75 334.25C111.08 329.579 108.418 323.27 108.332 316.667V233.333C108.42 217.889 114.593 203.103 125.514 192.182C136.435 181.261 151.221 175.088 166.665 175H633.332C648.775 175.088 663.562 181.261 674.482 192.182C685.405 203.103 691.579 217.889 691.665 233.333V316.667C691.579 323.27 688.919 329.579 684.249 334.25C679.579 338.92 673.269 341.58 666.665 341.667C651.195 341.667 636.359 347.813 625.419 358.753C614.479 369.693 608.332 384.53 608.332 400C608.332 415.47 614.479 430.307 625.419 441.247C636.359 452.187 651.195 458.333 666.665 458.333C673.269 458.42 679.579 461.08 684.249 465.75C688.919 470.42 691.579 476.73 691.665 483.333V566.667C691.579 582.11 685.405 596.897 674.482 607.817C663.562 618.74 648.775 624.913 633.332 625ZM158.332 505.333V566.667C158.332 568.877 159.21 570.997 160.773 572.56C162.336 574.123 164.455 575 166.665 575H633.332C635.542 575 637.662 574.123 639.225 572.56C640.789 570.997 641.665 568.877 641.665 566.667V505.333C618.009 499.647 596.959 486.163 581.899 467.057C566.839 447.95 558.649 424.33 558.649 400C558.649 375.67 566.839 352.05 581.899 332.943C596.959 313.835 618.009 300.352 641.665 294.667V233.333C641.665 231.123 640.789 229.004 639.225 227.441C637.662 225.878 635.542 225 633.332 225H166.665C164.455 225 162.336 225.878 160.773 227.441C159.21 229.004 158.332 231.123 158.332 233.333V294.667C181.987 300.352 203.04 313.835 218.099 332.943C233.158 352.05 241.347 375.67 241.347 400C241.347 424.33 233.158 447.95 218.099 467.057C203.04 486.163 181.987 499.647 158.332 505.333Z" fill="black"/>
</svg>
