<svg width="800" height="800" viewBox="0 0 800 800" fill="none" xmlns="http://www.w3.org/2000/svg">
<path d="M100.399 366.032L99.9992 366.666H166.666V666.666C166.666 675.506 170.178 683.985 176.429 690.236C182.68 696.487 191.159 699.999 199.999 699.999H599.999C608.84 699.999 617.318 696.487 623.57 690.236C629.821 683.985 633.333 675.506 633.333 666.666V366.666H699.999C707.154 366.667 714.119 364.367 719.865 360.105C725.612 355.842 729.834 349.844 731.908 342.997C733.983 336.15 733.799 328.817 731.384 322.082C728.969 315.347 724.452 309.568 718.499 305.599L418.499 105.599C413.022 101.944 406.584 99.9941 399.999 99.9941C393.414 99.9941 386.977 101.944 381.499 105.599L81.4992 305.599C77.8568 308.028 74.7286 311.151 72.2932 314.789C69.8579 318.428 68.1631 322.51 67.3057 326.803C66.4482 331.096 66.445 335.517 67.2961 339.811C68.1472 344.106 69.8359 348.191 72.2659 351.832C75.3772 356.38 79.5881 360.067 84.507 362.549C89.4259 365.032 94.8929 366.23 100.399 366.032ZM333.333 466.666C333.333 457.825 336.844 449.347 343.096 443.096C349.347 436.844 357.825 433.332 366.666 433.332H433.333C442.173 433.332 450.652 436.844 456.903 443.096C463.154 449.347 466.666 457.825 466.666 466.666V633.332H333.333V466.666Z" fill="black"/>
</svg>
