<svg width="800" height="800" viewBox="0 0 800 800" fill="none" xmlns="http://www.w3.org/2000/svg">
<g clip-path="url(#clip0_897_6259)">
<path d="M300 150C300 189.782 284.196 227.936 256.066 256.066C227.936 284.196 189.782 300 150 300C110.218 300 72.0644 284.196 43.934 256.066C15.8035 227.936 0 189.782 0 150C0 110.218 15.8035 72.0644 43.934 43.934C72.0644 15.8035 110.218 0 150 0C189.782 0 227.936 15.8035 256.066 43.934C284.196 72.0644 300 110.218 300 150Z" fill="black"/>
<path d="M450 300C410.218 300 372.064 284.196 343.934 256.066C315.804 227.936 300 189.782 300 150C300 110.218 315.804 72.0644 343.934 43.934C372.064 15.8035 410.218 0 450 0C489.782 0 527.936 15.8035 556.066 43.934C584.197 72.0644 600 110.218 600 150C600 189.782 584.197 227.936 556.066 256.066C527.936 284.196 489.782 300 450 300Z" fill="black"/>
<path d="M450 300H475C499.255 299.997 522.684 308.81 540.924 324.796C559.164 340.783 570.973 362.854 574.15 386.9L729.65 317.8C737.261 314.409 745.6 312.973 753.907 313.624C762.214 314.275 770.227 316.992 777.217 321.528C784.207 326.064 789.953 332.275 793.931 339.596C797.91 346.918 799.996 355.117 800 363.45V736.55C799.993 744.876 797.906 753.069 793.93 760.384C789.954 767.7 784.214 773.906 777.231 778.441C770.247 782.975 762.242 785.694 753.942 786.351C745.642 787.007 737.309 785.58 729.7 782.2L574.15 713.1C570.973 737.146 559.164 759.217 540.924 775.204C522.684 791.19 499.255 800.003 475 800H100C73.4783 800 48.043 789.464 29.2893 770.711C10.5357 751.957 0 726.522 0 700V400C0 373.478 10.5357 348.043 29.2893 329.289C48.043 310.536 73.4783 300 100 300H450Z" fill="black"/>
</g>
<defs>
<clipPath id="clip0_897_6259">
<rect width="800" height="800" fill="white"/>
</clipPath>
</defs>
</svg>
