<svg width="800" height="800" viewBox="0 0 800 800" fill="none" xmlns="http://www.w3.org/2000/svg">
<g clip-path="url(#clip0_897_6255)">
<path d="M300 150C300 189.782 284.196 227.936 256.066 256.066C227.936 284.196 189.782 300 150 300C110.218 300 72.0644 284.196 43.934 256.066C15.8035 227.936 0 189.782 0 150C0 110.218 15.8035 72.0644 43.934 43.934C72.0644 15.8035 110.218 0 150 0C189.782 0 227.936 15.8035 256.066 43.934C284.196 72.0644 300 110.218 300 150ZM50 150C50 176.522 60.5357 201.957 79.2893 220.711C98.043 239.464 123.478 250 150 250C176.522 250 201.957 239.464 220.711 220.711C239.464 201.957 250 176.522 250 150C250 123.478 239.464 98.043 220.711 79.2893C201.957 60.5357 176.522 50 150 50C123.478 50 98.043 60.5357 79.2893 79.2893C60.5357 98.043 50 123.478 50 150Z" fill="black"/>
<path d="M450 300H475C499.255 299.997 522.684 308.81 540.924 324.796C559.164 340.783 570.973 362.854 574.15 386.9L729.65 317.8C737.261 314.409 745.6 312.973 753.907 313.624C762.214 314.275 770.227 316.992 777.217 321.528C784.207 326.064 789.953 332.275 793.931 339.596C797.91 346.918 799.996 355.117 800 363.45V736.55C799.993 744.876 797.906 753.069 793.93 760.384C789.954 767.7 784.214 773.906 777.231 778.441C770.247 782.975 762.242 785.694 753.942 786.351C745.642 787.007 737.309 785.58 729.7 782.2L574.15 713.1C570.973 737.146 559.164 759.217 540.924 775.204C522.684 791.19 499.255 800.003 475 800H100C73.4783 800 48.043 789.464 29.2893 770.711C10.5357 751.957 0 726.522 0 700V400C0 373.478 10.5357 348.043 29.2893 329.289C48.043 310.536 73.4783 300 100 300H450ZM750 736.5V363.5L575 441.25V658.75L750 736.55V736.5ZM50 400V700C50 713.261 55.2678 725.979 64.6447 735.355C74.0215 744.732 86.7392 750 100 750H475C488.261 750 500.979 744.732 510.355 735.355C519.732 725.979 525 713.261 525 700V400C525 386.739 519.732 374.021 510.355 364.645C500.979 355.268 488.261 350 475 350H100C86.7392 350 74.0215 355.268 64.6447 364.645C55.2678 374.021 50 386.739 50 400Z" fill="black"/>
<path d="M450 300C489.782 300 527.936 284.196 556.066 256.066C584.197 227.936 600 189.782 600 150C600 110.218 584.197 72.0644 556.066 43.934C527.936 15.8035 489.782 0 450 0C410.218 0 372.064 15.8035 343.934 43.934C315.804 72.0644 300 110.218 300 150C300 189.782 315.804 227.936 343.934 256.066C372.064 284.196 410.218 300 450 300ZM350 150C350 123.478 360.536 98.043 379.289 79.2893C398.043 60.5357 423.478 50 450 50C476.522 50 501.957 60.5357 520.711 79.2893C539.464 98.043 550 123.478 550 150C550 176.522 539.464 201.957 520.711 220.711C501.957 239.464 476.522 250 450 250C423.478 250 398.043 239.464 379.289 220.711C360.536 201.957 350 176.522 350 150Z" fill="black"/>
</g>
<defs>
<clipPath id="clip0_897_6255">
<rect width="800" height="800" fill="white"/>
</clipPath>
</defs>
</svg>
