<svg width="800" height="800" viewBox="0 0 800 800" fill="none" xmlns="http://www.w3.org/2000/svg">
<path d="M508.321 433.333C540.537 433.333 566.654 459.45 566.654 491.667V641.667C566.654 673.883 540.537 700 508.321 700H124.987C92.7708 700 66.6541 673.883 66.6541 641.667V491.667C66.6541 459.45 92.7708 433.333 124.987 433.333H508.321ZM699.997 496.629L699.988 675C699.988 688.807 688.795 700 674.988 700C662.331 700 651.872 690.595 650.216 678.392L649.988 675L649.975 497.057C657.718 498.98 665.817 500 674.155 500C683.091 500 691.753 498.828 699.997 496.629ZM508.321 483.333H124.987C120.385 483.333 116.654 487.064 116.654 491.667V641.667C116.654 646.269 120.385 650 124.987 650H508.321C512.923 650 516.654 646.269 516.654 641.667V491.667C516.654 487.064 512.923 483.333 508.321 483.333ZM674.98 336.398C710.107 336.398 738.583 364.873 738.583 400C738.583 435.127 710.107 463.602 674.98 463.602C639.854 463.602 611.378 435.127 611.378 400C611.378 364.873 639.854 336.398 674.98 336.398ZM508.174 100C540.391 100 566.508 126.117 566.508 158.333V308.333C566.508 340.55 540.391 366.667 508.174 366.667H124.841C92.6245 366.667 66.5078 340.55 66.5078 308.333V158.333C66.5078 127.728 90.0782 102.627 120.057 100.193L124.841 100H508.174ZM508.174 150H124.841L122.93 150.22C119.249 151.084 116.508 154.388 116.508 158.333V308.333C116.508 312.936 120.239 316.667 124.841 316.667H508.174C512.777 316.667 516.508 312.936 516.508 308.333V158.333C516.508 153.731 512.777 150 508.174 150ZM674.988 100C687.644 100 698.104 109.405 699.76 121.608L699.988 125L699.997 303.371C691.753 301.172 683.091 300 674.155 300C665.817 300 657.718 301.02 649.975 302.943L649.988 125C649.988 111.193 661.181 100 674.988 100Z" fill="#212121"/>
</svg>
