<svg width="800" height="800" viewBox="0 0 800 800" fill="none" xmlns="http://www.w3.org/2000/svg">
<path d="M508.321 433.333C540.537 433.333 566.654 459.45 566.654 491.666V641.775C566.654 673.992 540.537 700.109 508.321 700.109H124.987C92.7708 700.109 66.6541 673.992 66.6541 641.775V491.666C66.6541 459.45 92.7708 433.333 124.987 433.333H508.321ZM700.005 496.517L699.988 675C699.988 688.807 688.795 700 674.988 700C662.331 700 651.872 690.594 650.216 678.392L649.988 675L649.983 496.876C657.766 498.82 665.911 499.852 674.297 499.852C683.185 499.852 691.802 498.693 700.005 496.517ZM674.996 336.397C710.122 336.397 738.598 364.873 738.598 400C738.598 435.126 710.122 463.602 674.996 463.602C639.869 463.602 611.393 435.126 611.393 400C611.393 364.873 639.869 336.397 674.996 336.397ZM508.174 99.8906C540.391 99.8906 566.508 126.007 566.508 158.224V308.333C566.508 340.55 540.391 366.666 508.174 366.666H124.841C92.6245 366.666 66.5078 340.55 66.5078 308.333V158.224C66.5078 127.618 90.0782 102.518 120.057 100.084L124.841 99.8906H508.174ZM675.009 99.9996C687.665 99.9996 698.125 109.405 699.78 121.607L700.009 125L700.005 303.188C691.802 301.012 683.185 299.852 674.297 299.852C665.911 299.852 657.766 300.884 649.983 302.829L650.009 125C650.009 111.193 661.202 99.9996 675.009 99.9996Z" fill="#212121"/>
</svg>
