<svg width="832" height="831" viewBox="0 0 832 831" fill="none" xmlns="http://www.w3.org/2000/svg">
<path d="M373.321 0C373.321 30.36 373.321 60.72 373.321 92C364.081 93.65 354.841 95.3 345.321 97C294.963 109.411 247.887 131.086 208.321 165C345.271 165 482.221 165 623.321 165C612.044 155.818 612.044 155.818 600.321 147.312C599.668 146.869 599.016 146.425 598.344 145.968C592.124 141.783 585.729 137.914 579.253 134.141C577.836 133.304 576.428 132.452 575.025 131.592C539.996 110.155 498.641 98.2032 458.321 92C458.321 61.64 458.321 31.28 458.321 0C535.039 6.39321 610.207 36.9582 670.321 85C670.945 85.4947 671.57 85.9894 672.214 86.499C681.076 93.5257 689.575 100.812 697.796 108.577C699.28 109.962 700.784 111.319 702.301 112.668C710.487 119.989 717.965 127.849 725.321 136C726.135 136.897 726.135 136.897 726.965 137.812C747.737 160.814 765.459 186.837 780.321 214C780.794 214.858 781.268 215.716 781.756 216.601C809.628 267.426 824.312 321.705 829.928 379.038C830.154 381.319 830.389 383.599 830.648 385.876C831.644 395.054 831.519 404.28 831.508 413.5C831.507 414.863 831.507 414.863 831.506 416.254C831.427 460.192 824.79 503.135 811.321 545C811.014 545.965 810.708 546.931 810.392 547.925C792.021 605.264 759.972 656.843 719.321 701C718.753 701.618 718.185 702.237 717.599 702.874C715.658 704.984 713.709 707.086 711.758 709.188C710.838 710.186 710.838 710.186 709.9 711.204C706.195 715.173 702.342 718.826 698.22 722.359C695.989 724.286 693.849 726.296 691.708 728.322C685.162 734.502 678.319 740.156 671.155 745.603C669.289 747.024 667.436 748.461 665.582 749.898C649.537 762.249 632.443 772.856 614.742 782.658C613.223 783.5 611.708 784.347 610.197 785.201C568.239 808.925 520.861 822.638 473.395 829.494C470.293 829.921 470.293 829.921 467.321 831C464.681 831 462.041 831 459.321 831C459.321 800.64 459.321 770.28 459.321 739C431.601 739 403.881 739 375.321 739C375.321 769.36 375.321 799.72 375.321 831C365.172 831 365.172 831 360.739 830.336C359.739 830.187 358.739 830.038 357.71 829.884C356.653 829.716 355.597 829.548 354.508 829.375C353.38 829.197 352.252 829.019 351.09 828.835C272.027 815.955 196.954 781.221 138.078 726.539C135.924 724.555 133.745 722.638 131.508 720.75C122.866 713.252 114.526 704.926 107.157 696.172C105.645 694.384 104.108 692.634 102.547 690.891C65.115 648.829 38.7646 598.909 20.3206 546C19.8928 544.778 19.4649 543.555 19.024 542.296C16.0068 533.487 13.5106 524.626 11.3831 515.562C11.1318 514.502 11.1318 514.502 10.8753 513.421C7.16725 497.635 4.71008 481.677 2.44955 465.629C2.34889 464.919 2.24822 464.208 2.1445 463.477C0.768382 453.412 0.151029 443.442 0.0823669 433.285C0.0726637 432.088 0.0629452 430.891 0.052948 429.657C0.0280772 425.792 0.01544 421.928 0.00814818 418.062C0.00552977 416.743 0.00291136 415.424 0.000213607 414.065C-0.0171483 392.777 1.02057 372.031 4.32065 351C4.49145 349.868 4.66225 348.737 4.83823 347.571C5.84179 341.013 6.98962 334.499 8.32065 328C8.4697 327.27 8.61874 326.539 8.77231 325.787C16.3165 289.755 29.2175 253.589 47.0189 221.364C48.3894 218.875 49.7353 216.374 51.0785 213.871C56.0591 204.633 61.1944 195.595 67.056 186.881C67.9642 185.53 68.8665 184.175 69.765 182.818C76.945 171.975 84.533 161.682 92.8895 151.719C94.8844 149.323 96.8152 146.876 98.7581 144.438C112.159 128.123 127.327 111.857 143.973 98.8516C146.23 97.0711 148.333 95.1984 150.446 93.25C207.588 42.3011 295.854 0 373.321 0Z" fill="#FEFEFE"/>
</svg>
